# xmcd CD database file
#
# Track frame offsets:
#	150
#	12215
#	26120
#	39655
#	54560
#	68990
#	83915
#	97295
#	110562
#	125517
#	138900
#	152082
#	164255
#	177202
#	190820
#	205247
#	217392
#	232180
#	247197
#	261487
#
# Disc length: 3674 seconds
#
# Revision: 0
# Processed by: cddbd v1.5.1PL0 Copyright (c) Steve Scherf et al.
# Submitted via: CDex 1.51
#
DISCID=350e5814
DTITLE=Duke Ellington Disc 2 - Starring Duke Ellington
DYEAR=1998
DGENRE=Jazz
TTITLE0=Caravan
TTITLE1=I Let A Song Go Out Of My Heart
TTITLE2=Prelude To A Kiss
TTITLE3=Concerto For Cootie
TTITLE4=Cotton Tail
TTITLE5=Don't Get Around Much Anymore
TTITLE6=Solitude
TTITLE7=Chelsea Bridge
TTITLE8=I've Got It Bad And That Ain't Good
TTITLE9=Jimp For Joy
TTITLE10=Take The 'A'Train
TTITLE11=Johnny Come Lately
TTITLE12=Main Stem
TTITLE13=Moon Mist
TTITLE14=Perdido
TTITLE15=The 'C' Jam Blues
TTITLE16=I'm Befinning To See The Light
TTITLE17=In A Sentimental Mood
TTITLE18=It Don't Mean A Thing [if it Ain't Got That Swing]
TTITLE19=Things Ain't What They Used To Be
EXTD=YEAR: 1998
EXTT0=
EXTT1=
EXTT2=
EXTT3=
EXTT4=
EXTT5=
EXTT6=
EXTT7=
EXTT8=
EXTT9=
EXTT10=
EXTT11=
EXTT12=
EXTT13=
EXTT14=
EXTT15=
EXTT16=
EXTT17=
EXTT18=
EXTT19=
PLAYORDER=
